<svg id="Group_69" data-name="Group 69" xmlns="http://www.w3.org/2000/svg" width="287.1" height="37.5" viewBox="0 0 287.1 37.5">
  <path id="Path_268" data-name="Path 268" d="M33.2,6.74l-.2.715,3.115,5.725.575.235.81-.27V37.5H25.473a20.6,20.6,0,0,0,5.59-14.06,20.306,20.306,0,0,0-1.695-8.13,22.583,22.583,0,0,1,3.895-2.475l.845-.1.07-.2L32.5,9.415h-.25l-.44.645a19.047,19.047,0,0,1-4.27,1.9A20.673,20.673,0,0,0,10.229,2.71,19.933,19.933,0,0,0,0,5.455V0H37.5V4.405ZM28.658,23.5a18.771,18.771,0,0,1-6.335,14H0V8A18.5,18.5,0,0,1,28.658,23.5Zm-6.81-4.97c0-4.065-3-6-8.874-6H3.59v1.83l2.1.475V31.1l-2.1.475V33.44H13.924V31.57l-3.59-.475V25.07h2.575C18.629,25.07,21.848,22.765,21.848,18.53Zm-4.88.135c0,2.575-1.39,4.165-3.625,4.165h-3v-8.1H13.5c2.185,0,3.47,1.425,3.47,3.93Z"/>
  <path id="Path_269" data-name="Path 269" d="M107.959,35.24l4.575.54v2.1H99.39v-2.1l2.64-.68v-22l-2.64-.68V10.41h11.8c7.654,0,11.449,2.64,11.449,8.065,0,5.59-4.165,8.705-11.549,8.705h-3.15Zm0-10.57h3.42c3.22,0,5.25-2.305,5.25-6.03,0-3.59-1.865-5.725-5.045-5.725h-3.625Z" transform="translate(-49.698 -5.205)"/>
  <path id="Path_270" data-name="Path 270" d="M175.5,39.54v2.1h-7.42l-8-10.3h-1.255v7.5l2.64.68v2.1h-11.2v-2.1l2.64-.68V20.64l-2.5-.68V17.93h12.324c5.25,0,8.774,2.54,8.774,6.335,0,4.2-2.88,6.1-5.5,6.775l6.74,7.895Zm-16.664-10.7h2.235c2.88,0,4.4-1.59,4.4-4.44,0-2.675-1.425-3.965-4.4-3.965h-2.235Z" transform="translate(-75.14 -8.965)"/>
  <path id="Path_271" data-name="Path 271" d="M199.59,29.275c0-7.385,4.91-12.365,12.839-12.365s12.839,5,12.839,12.365-4.91,12.365-12.839,12.365S199.59,36.7,199.59,29.275Zm19.444,0c0-4.845-1.625-9.585-6.6-9.585s-6.609,4.765-6.609,9.585,1.625,9.585,6.6,9.585S219.034,34.12,219.034,29.275Z" transform="translate(-99.802 -8.455)"/>
  <path id="Path_272" data-name="Path 272" d="M262.049,35.24l4.575.54v2.1H253.31v-2.1l2.81-.68v-22l-2.81-.68V10.41h12c7.654,0,11.449,2.64,11.449,8.065,0,5.59-4.165,8.705-11.549,8.705h-3.15Zm0-10.57h3.42c3.22,0,5.25-2.305,5.25-6.03,0-3.59-1.865-5.725-5.05-5.725h-3.625Z" transform="translate(-126.664 -5.205)"/>
  <path id="Path_273" data-name="Path 273" d="M328.918,19.965l-2.475.68v11.82c0,6.435-3.895,9.69-10.024,9.69-6.81,0-10.364-3.93-10.364-10v-11.5l-2.475-.69V17.93h11v2.035l-2.54.68v12.19c0,3.625,2.17,6.03,5.725,6.03a5.291,5.291,0,0,0,5.625-5.655V20.64l-2.53-.675V17.93h8.059Z" transform="translate(-151.801 -8.965)"/>
  <path id="Path_274" data-name="Path 274" d="M380.714,35.07c0,4.44-3.555,6.57-11,6.57H357.58v-2.1l2.78-.68V20.64l-2.44-.675V17.93h11.959c6.3,0,9.754,1.9,9.754,5.86,0,3.085-2.03,4.54-5.455,4.945v.135C378.444,29.345,380.714,31.515,380.714,35.07Zm-14.424-6.945h2.88c3.05,0,4.5-1.39,4.5-3.9,0-2.61-1.56-3.795-4.5-3.795h-2.88Zm8.4,6.7c0-2.81-1.895-4.335-5.625-4.335h-2.775v8.64h3.32c3.215,0,5.075-1.525,5.075-4.3Z" transform="translate(-178.803 -8.965)"/>
  <path id="Path_275" data-name="Path 275" d="M429.359,33.275l-2.2,8.365H407.825v-2.1l2.64-.68V20.64l-2.815-.675V17.93h11.379v2.035l-2.64.68v18.5l7.079-.4,3.855-6.145Z" transform="translate(-203.839 -8.965)"/>
  <path id="Path_276" data-name="Path 276" d="M464.2,39.54v2.1H453v-2.1l2.64-.68V20.64L453,19.965V17.93h11.2v2.035l-2.64.68v18.22Z" transform="translate(-226.516 -8.965)"/>
  <path id="Path_277" data-name="Path 277" d="M478,29.35c0-7.925,6.064-12.43,13.5-12.43a17.8,17.8,0,0,1,9.145,2.575l-1,6.6h-2.1l-.845-4.54a6.614,6.614,0,0,0-5.045-2.065c-4.575,0-7.35,3.285-7.35,9.11,0,6.6,3.42,9.655,7.62,9.655,3.085,0,5.115-1.7,6.7-4.775l2.135,1c-2.135,5-5.825,7.18-10.534,7.18C483.2,41.645,478,36.7,478,29.35Z" transform="translate(-239.017 -8.46)"/>
  <path id="Path_278" data-name="Path 278" d="M548.743,39.54v2.1H537.364v-2.1l2.76-.575L538.7,34.9h-8.3L528.84,39l2.71.575-.035,2.1-8.264-.035v-2.1l2.135-.54,7.449-18.665-2-.645V17.93h6.845l8.594,21.035Zm-13.784-15.5-.235-.78-.235.78L531.375,32.4h6.469Z" transform="translate(-261.643 -8.965)"/>
</svg>
